<svg width="45" height="90" viewBox="0 0 45 90" fill="none" xmlns="http://www.w3.org/2000/svg">
<path d="M9.21642 89.1746V80.9546C11.1261 80.8715 12.7037 80.6224 13.9492 80.2073C15.2776 79.7921 16.274 78.8373 16.9382 77.3427C17.6855 75.8482 18.0592 73.4403 18.0592 70.1191V20.1764L4.4837 28.2718L5.93327e-05 20.7991L28.521 1.70081e-05H35.9937V68.7491C35.9937 70.9909 35.9522 73.1497 35.8691 75.2255C35.8691 77.3012 35.7861 78.8788 35.6201 79.9582C36.9485 79.7921 38.6092 79.7091 40.6019 79.7091C42.6776 79.6261 44.1307 79.5846 44.961 79.5846V89.1746H9.21642Z" fill="white" fill-opacity="0.3"/>
</svg>
