<svg width="56" height="90" viewBox="0 0 56 90" fill="none" xmlns="http://www.w3.org/2000/svg">
<path d="M-8.14716e-06 89.1746C-8.14716e-06 84.857 0.539689 80.9961 1.61908 77.5918C2.78151 74.1876 4.27605 71.1155 6.10272 68.3755C8.01242 65.6355 10.0882 63.103 12.33 60.7782C14.6548 58.4533 17.0212 56.17 19.4291 53.9282C25.4903 48.2821 29.7664 43.1758 32.2573 38.6091C34.8312 34.0424 36.1182 29.5173 36.1182 25.0336C36.1182 22.3767 35.7861 19.8027 35.1218 17.3118C34.4576 14.8209 33.2536 12.7867 31.51 11.2091C29.7664 9.5485 27.317 8.75971 24.1618 8.84274C21.92 8.84274 19.8858 9.38244 18.0591 10.4618C16.3154 11.4582 14.987 12.6621 14.0736 14.0736C14.987 14.987 15.6097 16.0664 15.9418 17.3118C16.357 18.5573 16.5645 19.6367 16.5645 20.55C16.5645 21.4634 16.2739 22.5843 15.6927 23.9127C15.1115 25.1582 14.1982 26.2376 12.9527 27.1509C11.7903 28.0643 10.1712 28.5209 8.09545 28.5209C5.52151 28.3549 3.52878 27.4 2.11726 25.6564C0.78878 23.9127 0.124538 21.837 0.124538 19.4291C0.124538 17.5194 0.70575 15.4852 1.86817 13.3264C3.0306 11.0846 4.77423 8.96729 7.09908 6.97456C9.42393 4.8988 12.247 3.23819 15.5682 1.99274C18.9724 0.664258 22.8748 1.70081e-05 27.2754 1.70081e-05C30.5967 1.70081e-05 33.8764 0.415168 37.1145 1.24547C40.4357 2.07577 43.4664 3.40426 46.2064 5.23093C48.9464 7.05759 51.1051 9.46547 52.6827 12.4546C54.3433 15.4436 55.1736 19.1385 55.1736 23.5391C55.1736 25.6149 54.8 27.8152 54.0527 30.14C53.3054 32.3818 51.9354 34.8727 49.9427 37.6127C47.95 40.2697 45.1685 43.3418 41.5982 46.8291C38.0279 50.3164 33.4197 54.3849 27.7736 59.0346C23.207 62.7709 19.8442 66.1752 17.6854 69.2473C15.5267 72.3194 14.2397 74.6858 13.8245 76.3464L38.2354 76.9691C40.1451 77.0521 41.7642 76.9276 43.0927 76.5955C44.5042 76.1803 45.5836 75.3915 46.3309 74.2291C47.1612 72.9837 47.5764 71.1985 47.5764 68.8737H55.5473L54.5509 89.1746H-8.14716e-06Z" fill="white" fill-opacity="0.3"/>
</svg>
