<svg width="61" height="92" viewBox="0 0 61 92" fill="none" xmlns="http://www.w3.org/2000/svg">
<path d="M27.0264 91.1673C20.7991 91.1673 15.6927 90.254 11.7073 88.4273C7.72181 86.5176 4.77423 84.1512 2.86454 81.3282C0.954839 78.5052 -9.63263e-06 75.6821 -9.63263e-06 72.8591C-9.63263e-06 70.3682 0.747263 68.2094 2.24181 66.3827C3.81938 64.473 5.89514 63.4767 8.46908 63.3937C10.5448 63.3106 12.1639 63.7258 13.3264 64.6391C14.4888 65.5524 15.3191 66.6318 15.8173 67.8773C16.3154 69.1227 16.5645 70.2852 16.5645 71.3646C16.5645 72.1949 16.3985 73.1497 16.0664 74.2291C15.7342 75.2255 15.2361 76.1803 14.5718 77.0937C15.4851 78.6712 16.9797 79.9167 19.0554 80.83C21.2142 81.6603 23.4561 82.0755 25.7809 82.0755C31.0118 82.0755 34.9557 80.4979 37.6127 77.3427C40.2697 74.1876 41.5982 70.2852 41.5982 65.6355C41.5982 62.8124 41.0585 59.9894 39.9791 57.1664C38.8997 54.3433 37.0315 52.0185 34.3745 50.1918C31.7176 48.2821 27.9812 47.3688 23.1654 47.4518C22.5842 47.4518 21.5464 47.4933 20.0518 47.5764C18.5573 47.6594 17.4364 47.7424 16.6891 47.8255V38.8582C17.3533 38.9412 17.9761 38.9827 18.5573 38.9827C19.1385 38.9827 19.7197 38.9827 20.3009 38.9827C23.9542 38.9827 27.0679 38.3185 29.6418 36.99C32.2157 35.6615 34.167 33.8349 35.4954 31.51C36.907 29.1852 37.6542 26.4867 37.7373 23.4146C37.8203 20.5085 37.4467 17.9761 36.6164 15.8173C35.8691 13.5755 34.6236 11.8318 32.88 10.5864C31.2194 9.34092 28.9776 8.7182 26.1545 8.7182C23.9127 8.7182 21.8785 9.25789 20.0518 10.3373C18.2251 11.4167 16.9797 12.6206 16.3154 13.9491C17.0627 14.8624 17.5609 15.9418 17.81 17.1873C18.1421 18.3497 18.3082 19.3046 18.3082 20.0518C18.3082 21.0482 18.0176 22.2106 17.4364 23.5391C16.9382 24.7846 16.0664 25.864 14.8209 26.7773C13.5754 27.6906 11.9148 28.1058 9.83908 28.0227C7.26514 27.9397 5.31393 27.0264 3.98544 25.2827C2.65696 23.5391 1.99272 21.4633 1.99272 19.0555C1.99272 16.5646 2.94757 13.8246 4.85726 10.8355C6.76696 7.84638 9.67302 5.31395 13.5754 3.23819C17.4779 1.07941 22.3351 1.70081e-05 28.1473 1.70081e-05C33.2951 1.70081e-05 37.9448 0.705773 42.0964 2.11728C46.3309 3.5288 49.6521 5.85365 52.06 9.09184C54.5509 12.33 55.7964 16.6476 55.7964 22.0446C55.7964 24.2033 55.1736 26.6527 53.9282 29.3927C52.7657 32.0497 50.8145 34.4991 48.0745 36.7409C45.3345 38.9827 41.6812 40.6433 37.1145 41.7227C45.0854 43.1343 50.9391 45.9988 54.6754 50.3164C58.4948 54.634 60.4045 59.4497 60.4045 64.7637C60.4045 70.4097 58.9515 75.2255 56.0454 79.2109C53.2224 83.1133 49.2785 86.1024 44.2136 88.1782C39.2318 90.1709 33.5027 91.1673 27.0264 91.1673Z" fill="white" fill-opacity="0.3"/>
</svg>
