<svg width="44" height="43" viewBox="0 0 44 43" fill="none" xmlns="http://www.w3.org/2000/svg">
<g filter="url(#filter0_d_2126_2)">
<rect x="4" y="4" width="36" height="35" rx="6" fill="#F3AF2D"/>
</g>
<g filter="url(#filter1_d_2126_2)">
<path d="M11.1722 21.4639C11.6313 20.7713 12.3548 20.321 12.906 19.7815C13.2954 19.3992 13.6347 19.1413 14.1609 19.1754C14.6871 19.2094 14.9173 19.5629 15.2725 19.9465C16.2854 21.0397 17.2456 22.1343 18.1743 23.3113C18.3322 23.5116 18.6032 23.6045 18.7715 23.6412C19.0452 23.7001 19.303 23.5443 19.4858 23.3073L20.9197 21.4508L22.6508 19.4084C25.4303 16.1314 28.6887 13.382 32.3679 11.1445C32.9744 10.7753 33.6466 11.1772 33.8754 11.6368C34.2161 12.3189 33.8005 12.7771 33.3203 13.2314L31.7786 14.6873C31.3406 15.101 30.9736 15.5069 30.5526 15.9703C26.5524 20.3668 23.2375 25.2306 20.3198 30.3956C20.0607 30.8551 19.7358 30.9821 19.2898 30.9991C18.8439 31.0161 18.5821 30.7844 18.2861 30.3668C16.3616 27.6514 14.2135 25.1665 11.6313 23.0573C11.1564 22.6697 10.7605 22.0871 11.1722 21.4652V21.4639Z" fill="white"/>
</g>
<defs>
<filter id="filter0_d_2126_2" x="0" y="0" width="44" height="43" filterUnits="userSpaceOnUse" color-interpolation-filters="sRGB">
<feFlood flood-opacity="0" result="BackgroundImageFix"/>
<feColorMatrix in="SourceAlpha" type="matrix" values="0 0 0 0 0 0 0 0 0 0 0 0 0 0 0 0 0 0 127 0" result="hardAlpha"/>
<feOffset/>
<feGaussianBlur stdDeviation="2"/>
<feComposite in2="hardAlpha" operator="out"/>
<feColorMatrix type="matrix" values="0 0 0 0 0 0 0 0 0 0 0 0 0 0 0 0 0 0 0.1 0"/>
<feBlend mode="normal" in2="BackgroundImageFix" result="effect1_dropShadow_2126_2"/>
<feBlend mode="normal" in="SourceGraphic" in2="effect1_dropShadow_2126_2" result="shape"/>
</filter>
<filter id="filter1_d_2126_2" x="7" y="7" width="31" height="28" filterUnits="userSpaceOnUse" color-interpolation-filters="sRGB">
<feFlood flood-opacity="0" result="BackgroundImageFix"/>
<feColorMatrix in="SourceAlpha" type="matrix" values="0 0 0 0 0 0 0 0 0 0 0 0 0 0 0 0 0 0 127 0" result="hardAlpha"/>
<feOffset/>
<feGaussianBlur stdDeviation="2"/>
<feComposite in2="hardAlpha" operator="out"/>
<feColorMatrix type="matrix" values="0 0 0 0 0 0 0 0 0 0 0 0 0 0 0 0 0 0 0.1 0"/>
<feBlend mode="normal" in2="BackgroundImageFix" result="effect1_dropShadow_2126_2"/>
<feBlend mode="normal" in="SourceGraphic" in2="effect1_dropShadow_2126_2" result="shape"/>
</filter>
</defs>
</svg>
