<svg width="61" height="60" viewBox="0 0 61 60" fill="none" xmlns="http://www.w3.org/2000/svg">
<foreignObject x="-20" y="-20" width="100.064" height="99.5342"><div xmlns="http://www.w3.org/1999/xhtml" style="backdrop-filter:blur(10px);clip-path:url(#bgblur_0_2194_161_clip_path);height:100%;width:100%"></div></foreignObject><g data-figma-bg-blur-radius="20">
<rect width="60.0638" height="59.5342" rx="6" fill="black" fill-opacity="0.3"/>
<rect x="0.5" y="0.5" width="59.0638" height="58.5342" rx="5.5" stroke="white" stroke-opacity="0.02"/>
</g>
<path d="M46.0355 16.3821C46.4838 15.9426 47.1785 15.8761 47.7025 16.222C48.3722 16.6642 48.502 17.5938 47.9788 18.2024L28.1019 41.3089C27.9827 41.4474 27.8532 41.5723 27.7159 41.684C27.505 41.8556 27.3112 42.0487 27.139 42.2591C25.8402 43.8455 23.4245 43.8768 22.0853 42.3245L12.2425 30.9134C10.8937 29.3498 11.3212 26.9416 13.1263 25.9388C14.5949 25.123 16.4435 25.5584 17.3939 26.9436L21.4857 32.9085C21.9112 33.5287 22.4212 34.0866 23.0003 34.5667C24.0483 35.4354 25.5645 35.4411 26.619 34.5804L31.7376 30.4026L46.0355 16.3821Z" fill="white"/>
<defs>
<clipPath id="bgblur_0_2194_161_clip_path" transform="translate(20 20)"><rect width="60.0638" height="59.5342" rx="6"/>
</clipPath></defs>
</svg>
