<svg width="59" height="60" viewBox="0 0 59 60" fill="none" xmlns="http://www.w3.org/2000/svg">
<rect width="59" height="59.5342" rx="6" fill="black" fill-opacity="0.3"/>
<path d="M41.5766 10.6639C43.2399 10.1659 45.9286 12.5198 46.9689 13.6937C47.7887 14.6194 49.2969 16.74 49.0525 18.0097L38.3067 28.6605L31.0826 21.1756L41.5766 10.6639Z" fill="white"/>
<path d="M43.7018 36.5805C42.5691 36.7271 40.0488 36.4459 39.2336 37.243C38.4183 38.0401 38.7894 40.7155 38.4258 41.7997L24.5352 27.7273L29.9304 22.4228L43.7018 36.579V36.5805Z" fill="white"/>
<path d="M23.2907 29.1405C23.4621 29.0956 23.5933 29.1405 23.714 29.2646L30.7577 36.4863L20.1385 47.167C18.6317 43.7872 16.0279 41.1148 12.6343 39.6387L23.2907 29.1405Z" fill="white"/>
<path d="M18.5781 48.8106C17.888 48.9018 17.3932 48.7119 16.7896 48.4412C14.8833 47.5843 11.1827 43.9981 11.0008 41.8596C10.8697 40.3118 13.4362 41.8895 14.0159 42.2768C16.0205 43.6168 18.6586 46.2503 18.5781 48.8121V48.8106Z" fill="white"/>
</svg>
