<svg width="59" height="60" viewBox="0 0 59 60" fill="none" xmlns="http://www.w3.org/2000/svg">
<rect width="59" height="59.5342" rx="6" fill="black" fill-opacity="0.3"/>
<path d="M29.1411 15.616C29.9395 15.4854 30.8854 16.0151 31.6613 16.3057C37.6091 18.5292 43.4287 21.2603 49.3749 23.5021C50.34 24.1054 50.1412 25.8213 49.0975 26.224L29.574 34.1084C22.9336 31.6734 16.4006 28.7492 9.7875 26.1707C8.8352 25.6944 8.70535 24.076 9.62557 23.5021L29.1411 15.616Z" fill="white"/>
<path d="M41.8001 31.3657V37.9487C41.8001 38.8348 40.6303 40.004 40.0251 40.4365C35.2112 43.8677 23.6349 43.9213 18.868 40.3715C18.3034 39.9524 17.2001 38.7697 17.2001 37.9487V31.3657L28.1713 35.8916C29.0426 36.2398 29.956 36.2398 30.8289 35.8916L41.8001 31.3657Z" fill="white"/>
<path d="M47.2237 29.3123V33.4836C47.2237 33.6326 47.7597 33.8525 47.8672 33.9855C48.6554 34.9769 48.9216 36.2041 48.2534 37.348C47.9854 37.8056 47.3259 38.1036 47.229 38.6161C46.8851 40.4322 47.5657 39.5312 47.2219 41.3473C46.9892 42.5781 45.1043 42.6987 44.6248 41.4909C44.2986 39.5117 44.9386 40.4836 44.5842 38.6143C44.4449 37.8819 43.1684 37.5396 43.1666 35.9576C43.1666 34.741 43.9266 34.1487 44.586 33.3009L44.6124 30.3055C44.7253 29.9738 46.7441 29.3389 47.2272 29.3088L47.2237 29.3123Z" fill="white"/>
</svg>
