<svg width="277" height="79" viewBox="0 0 277 79" fill="none" xmlns="http://www.w3.org/2000/svg">
<path d="M157.457 54.0041C156.191 59.5086 151.489 63.4581 142.557 63.4581C132.257 63.4581 127.084 57.2737 127.084 49.7886C127.084 42.3035 132.175 36.1486 142.94 36.1486C152.361 36.1486 156.803 40.7721 157.528 45.5021H148.419C148.024 44.0535 146.875 41.9132 142.904 41.9132C138.686 41.9132 136.612 45.0232 136.612 49.6053C136.612 53.7676 138.255 57.6107 142.934 57.6107C146.304 57.6107 147.689 56.2213 148.478 54.0041H157.463H157.457Z" fill="#CF244A"/>
<path d="M167.262 57.995L165.506 62.8669H156.444L166.955 36.7517H178.733L189.934 62.8669H180.224L178.339 57.995H167.262ZM176.241 51.9525C174.426 47.2522 173.378 44.2841 172.682 42.0965H172.547C171.94 44.2605 170.714 47.9616 169.235 51.9525H176.247H176.241Z" fill="#CF244A"/>
<path d="M237.977 52.4728H223.124V56.8303H239.727L238.69 62.861H214.215V36.7458H238.761V42.7883H223.118V46.4303H237.971V52.4728H237.977Z" fill="#CF244A"/>
<path d="M268.085 54.0633C268.085 49.9187 268.168 44.899 268.368 41.8364H268.286C266.942 46.8856 265.169 53.6317 262.394 62.861H254.97C252.784 54.2761 250.981 47.063 249.62 41.7832H249.555C249.726 44.8281 250.044 49.8655 250.044 54.3471V62.861H241.972V36.7458H254.911C256.702 42.6287 258.464 49.0436 259.253 53.4425H259.306C260.367 48.8249 262.146 42.7173 264.014 36.7458H276.906V62.861H268.097V54.0574L268.085 54.0633Z" fill="#CF244A"/>
<path d="M205.224 36.7458H190.889H184.431V42.7646H193.605V62.861H202.637V42.7646H211.758V36.7458H205.224Z" fill="#CF244A"/>
<path d="M132.104 19.7121V27.1972C132.104 29.2548 133.088 29.9347 134.467 29.9347C135.916 29.9347 136.676 29.1838 136.676 27.1972V19.7121H140.872V27.215C140.872 30.9753 138.786 32.9382 134.367 32.9382C129.948 32.9382 127.915 31.0817 127.915 27.215V19.7121H132.11H132.104Z" fill="white"/>
<path d="M143.729 32.6426V19.7121H148.608C151.459 24.3415 152.426 26.0266 153.256 27.688H153.327C153.209 26.47 153.215 24.1346 153.215 21.9943V19.7121H156.986V32.6426H152.373C151.365 30.8452 148.201 25.3407 147.435 23.768H147.37C147.494 25.2461 147.5 26.9607 147.5 29.4972V32.6426H143.723H143.729Z" fill="white"/>
<path d="M164.21 19.7121V32.6426H160.015V19.7121H164.21Z" fill="white"/>
<path d="M170.65 32.6426L165.63 19.7121H170.184L172.075 25.5181C172.771 27.6348 173.054 28.764 173.272 29.6745H173.307C173.507 28.835 173.625 28.2969 174.627 25.3171L176.388 19.7121H180.884L175.776 32.6426H170.656H170.65Z" fill="white"/>
<path d="M193.216 27.4988H186.328V29.6568H194.029L193.546 32.6426H182.198V19.7121H193.575V22.7038H186.322V24.5071H193.21V27.4988H193.216Z" fill="white"/>
<path d="M200.157 27.889V32.6485H196.044V19.718H203.839C207.044 19.718 208.712 21.2907 208.712 23.431C208.712 25.0983 207.751 26.0916 206.491 26.5291C207.186 26.8307 208.37 27.4515 208.37 29.6391V30.3426C208.37 31.0758 208.37 32.0218 208.547 32.6485H204.375C204.163 32.1045 204.11 31.3123 204.11 29.9702V29.5326C204.11 28.3324 203.727 27.889 202.107 27.889H200.151H200.157ZM200.157 25.1988H202.72C203.863 25.1988 204.499 24.779 204.499 23.8449C204.499 22.9817 203.916 22.4969 202.72 22.4969H200.157V25.1988Z" fill="white"/>
<path d="M214.286 28.7522C214.557 29.6095 215.217 30.248 216.896 30.248C218.386 30.248 218.846 29.7987 218.846 29.1542C218.846 28.4684 218.434 28.0664 216.018 27.6407C211.257 26.807 210.574 25.1752 210.574 23.4724C210.574 20.9123 212.972 19.4224 216.495 19.4224C220.779 19.4224 222.499 21.409 222.67 23.3246H218.599C218.451 22.7511 218.086 22.0889 216.489 22.0889C215.358 22.0889 214.816 22.4614 214.816 23.0645C214.816 23.6675 215.352 23.9395 217.355 24.3061C222.228 25.1811 223.171 26.7183 223.171 28.6635C223.171 31.129 221.103 32.9264 216.725 32.9264C212.347 32.9264 210.479 31.0876 210.096 28.7522H214.292H214.286Z" fill="white"/>
<path d="M229.552 19.7121V32.6426H225.357V19.7121H229.552Z" fill="white"/>
<path d="M232.58 19.7121H239.109C243.757 19.7121 246.114 22.5678 246.114 25.9734C246.114 29.9702 243.204 32.6485 239.067 32.6485H232.58V19.718V19.7121ZM236.77 29.7396H238.578C240.652 29.7396 241.689 28.4861 241.689 26.0739C241.689 24.0873 240.864 22.6328 238.584 22.6092H236.77V29.7396Z" fill="white"/>
<path d="M251.576 30.2303L250.763 32.6426H246.562L251.435 19.7121H256.897L262.087 32.6426H257.586L256.708 30.2303H251.57H251.576ZM255.742 27.2386C254.899 24.9091 254.416 23.4428 254.092 22.355H254.027C253.744 23.4251 253.179 25.258 252.489 27.2386H255.742Z" fill="white"/>
<path d="M263.466 19.7121H269.994C274.643 19.7121 277 22.5678 277 25.9734C277 29.9702 274.089 32.6485 269.953 32.6485H263.466V19.718V19.7121ZM267.661 29.7396H269.47C271.544 29.7396 272.581 28.4861 272.581 26.0739C272.581 24.0873 271.756 22.6328 269.476 22.6092H267.661V29.7396Z" fill="white"/>
<path d="M124.162 0.697666C119.513 2.47139 114.776 3.9968 110.062 5.58132C107.281 6.51549 104.5 7.43782 101.719 8.36607C100.087 8.88637 98.4492 9.40666 96.8171 9.92695C93.9536 10.8493 91.0901 11.7657 88.2266 12.6881C87.4607 12.9482 86.6476 13.0783 85.9287 13.4626C83.7723 13.9829 81.6865 14.7397 79.5831 15.4314C78.3634 15.8335 77.3618 16.5666 76.5781 17.5894C75.877 18.5 75.1759 19.4164 74.4747 20.3328C74.1565 20.7467 73.8207 21.2374 73.3552 21.5094C72.6128 21.941 71.7821 21.5212 71.134 21.1133C70.3326 20.6048 69.5667 20.0372 68.9421 19.3218C68.3176 18.6064 67.8462 17.7373 67.7166 16.7972C67.5752 15.7329 67.9287 14.6332 68.7065 13.8824C69.496 13.1256 70.6331 12.8063 71.7232 12.8891C72.607 12.96 73.0783 13.5335 73.3493 14.3435C74.5395 12.4811 73.8089 10.6837 71.6701 10.0334C70.4387 9.60177 69.2957 8.93367 68.0053 8.67352C67.587 8.46067 67.1274 8.43702 66.6737 8.39564C64.9297 8.24191 63.2623 8.60257 61.6891 9.31797C60.3634 9.92104 59.0554 10.5714 57.5117 10.9853C58.148 11.3991 58.6665 11.6061 59.2027 11.7657C60.1513 12.0495 60.1572 12.0436 59.568 12.8595C58.5663 14.2489 57.6943 15.7093 56.7929 17.1638C56.7811 17.1815 54.6717 20.1495 52.6449 22.0474C52.1382 21.3911 51.6492 20.7289 51.1778 20.049C50.2586 18.7246 49.3866 17.3234 48.0904 16.3774C46.6233 15.3013 44.8027 14.9407 43.0881 14.4559C41.2086 13.9178 39.3703 13.2143 37.5084 12.623C33.3545 11.2986 29.1948 9.97425 25.0527 8.60848C18.3241 6.36768 11.566 4.19782 4.87267 1.84468C3.29951 1.29482 1.73224 0.70949 0 0.00591242C1.53192 3.9495 4.19509 7.39053 7.53585 9.95652C11.1771 12.7531 15.3899 14.0716 19.7382 15.325C23.9097 16.5311 28.1637 17.4535 32.2351 18.9907C32.9598 19.2627 33.767 19.3632 34.3797 19.8953C32.512 19.5465 30.656 19.1622 28.7647 18.9552C27.4508 18.6655 26.1192 18.4704 24.7994 18.1925C20.8576 17.3589 16.91 16.5725 13.039 15.461C11.8075 15.1121 10.5761 14.7633 9.2622 14.3908C9.70999 15.2363 10.2874 15.8571 10.8236 16.5075C13.6635 19.9189 17.3578 21.9824 21.5234 23.289C21.5823 23.3304 21.6413 23.3954 21.712 23.4191C25.2589 24.5306 28.8766 25.3406 32.5414 25.9496C34.2796 26.3398 36.0472 26.5586 37.8089 26.8365C39.058 27.0316 40.3306 27.0552 41.5562 27.4218C40.3424 27.4395 39.1346 27.4573 37.9208 27.475C37.8442 27.4632 37.7676 27.4455 37.6969 27.4455C33.1424 27.546 28.6351 27.1617 24.1748 26.2393C23.126 26.0206 22.0714 25.8077 20.8046 25.5535C23.4383 28.7403 26.7673 30.449 30.273 31.8916C30.8033 32.134 31.3277 32.3882 31.8698 32.607C34.6272 33.7363 37.3788 34.8833 40.2364 35.7406C43.312 36.8462 46.4171 37.8513 49.587 38.6554C50.1644 38.8505 50.7418 39.0456 51.3192 39.2407C45.2622 38.7382 39.223 38.1292 33.2367 37.0117C34.0851 37.5025 34.9395 37.9518 35.8174 38.3361C42.4989 41.2687 49.4868 43.0602 56.6986 44.0475C57.3055 44.1303 57.3703 44.2959 57.1876 44.8516C56.9637 45.5375 56.728 46.2115 56.4747 46.8855C48.9094 46.1819 41.5915 44.2426 34.6508 41.0913L34.4858 40.707C34.4858 40.707 34.4858 40.6774 34.4858 40.6656C34.4858 40.1985 34.1087 39.8201 33.6432 39.8201C33.1778 39.8201 32.8007 40.1985 32.8007 40.6656C32.8007 40.8075 32.836 40.9376 32.9009 41.0558L27.003 54.95H23.4737L23.9568 55.695C26.1427 59.0296 29.8252 61.0221 33.7964 61.0221C37.7676 61.0221 41.4796 59.0119 43.6655 55.6477L44.1428 54.9086H40.5074L35.4639 43.0424C42.004 45.839 48.8564 47.595 55.9267 48.2926C55.5143 49.3451 55.0724 50.3856 54.6187 51.4203C54.2475 52.1771 53.8881 52.9398 53.4992 53.6907C52.804 55.0387 52.0911 56.3749 51.384 57.717C50.4649 59.2543 49.5457 60.7915 48.6266 62.3287C48.3143 62.7603 48.0138 63.1979 47.6838 63.6117C47.5012 63.8423 47.5424 64.0138 47.731 64.203C48.9683 65.4505 50.2056 66.7039 51.437 67.9574C51.6433 68.1643 51.8023 68.1702 51.985 67.9219C52.804 66.7926 53.6348 65.6693 54.165 64.3626C55.0547 62.9968 55.7912 61.5483 56.4452 60.0525C57.223 58.3851 58.0655 56.7415 58.5958 54.9737C59.4914 52.9102 60.1513 50.77 60.7228 48.6001C60.7758 48.6001 60.8348 48.6001 60.8878 48.6001L60.929 48.6888C60.605 50.2497 60.2809 51.8164 59.951 53.3773C59.3971 55.3403 58.8374 57.3032 58.2835 59.2661C57.712 60.8447 57.1405 62.4292 56.5749 64.0079C56.074 65.149 55.5673 66.2901 55.0665 67.4252C54.6305 68.2234 54.2063 69.0334 53.7467 69.8198C53.5876 70.0917 53.6819 70.2336 53.8587 70.4051C54.7837 71.3097 55.7028 72.2202 56.622 73.1307C58.1834 74.6739 60.493 76.7905 62.0367 78.3514C62.0544 77.8725 62.8086 58.0836 62.9559 57.652L63.8279 78.2391C64.9827 77.1216 70.8335 71.3747 72.0472 70.2041C72.3241 69.938 72.3124 69.7133 72.1592 69.4C70.5801 66.1836 69.2957 62.849 68.2233 59.4257C67.1038 55.8546 66.1788 52.2362 65.4069 48.5824C65.4776 48.5824 65.5483 48.5824 65.6249 48.5764C66.3143 51.0656 67.1863 53.5015 68.1349 55.9019C69.6786 59.8041 71.4875 63.5822 73.6145 67.2006C73.9601 67.7839 74.3628 67.847 74.8223 67.3898C75.8358 66.3787 76.8374 65.3559 77.8744 64.3685C78.2397 64.0256 78.275 63.7595 77.9981 63.3338C75.0639 58.8286 72.6659 54.0277 70.2914 49.215C70.1382 48.9075 69.9909 48.6001 69.8377 48.2926C77.3323 47.5654 84.5854 45.6498 91.4849 42.5635L86.1114 55.2279H82.5821L83.0652 55.9729C85.2512 59.3075 88.9336 61.3 92.9048 61.3C96.876 61.3 100.588 59.2898 102.774 55.9256L103.251 55.1865H99.6158L93.5824 40.9849C93.5824 40.9731 93.5824 40.9553 93.5824 40.9435C93.5824 40.4764 93.2053 40.098 92.7399 40.098C92.3333 40.098 91.9975 40.3818 91.915 40.7661C84.6855 44.1362 77.0554 46.1937 69.1484 46.8973C68.73 46.0282 68.3117 45.165 67.8934 44.2959C69.0718 44.1303 70.3562 43.9115 71.4403 43.7164C71.4875 43.7105 71.5287 43.7046 71.5817 43.6987C71.8763 43.6455 72.1709 43.5864 72.4655 43.5272C72.7955 43.4622 73.0842 43.409 73.3199 43.3617C73.4613 43.3321 73.6027 43.3085 73.7441 43.2789C73.8796 43.2494 73.9562 43.2375 73.9562 43.2375C78.6168 42.2856 83.1949 41.0558 87.6374 39.3117C89.4109 38.614 91.1608 37.8809 92.9991 36.7989C86.7359 38.076 80.6142 38.7323 74.4688 39.2466C74.6927 39.1166 74.9284 39.0515 75.1641 38.9865C81.4921 37.2542 87.7081 35.1907 93.7651 32.6661C96.6404 31.4718 99.5157 30.2716 102.055 28.4151C103.139 27.6228 104.052 26.665 104.895 25.589C98.0662 27.3272 91.1549 27.6938 84.0728 27.3568C86.0701 26.9961 87.9909 26.8956 89.8646 26.4817C92.787 26.1033 95.6859 25.5653 98.5611 24.8972C100.812 24.3769 103.051 23.8271 105.201 22.9461C107.953 22.077 110.439 20.7171 112.655 18.8724C114.187 17.6013 115.495 16.1173 116.626 14.3081C113.22 15.4373 109.868 16.2828 106.492 17.0278C104.73 17.418 102.962 17.7964 101.201 18.1807C100.853 18.2398 100.5 18.2989 100.152 18.3581C99.7985 18.429 99.4449 18.5 99.0914 18.5709C98.9913 18.5473 98.8557 18.5946 98.7438 18.6419C96.2868 18.9789 93.8417 19.4164 91.4083 19.9012C91.3906 19.848 91.149 19.8657 91.3435 19.7534C91.5733 19.6233 91.8266 19.5405 92.0682 19.44C96.5107 17.8555 101.065 16.6494 105.614 15.4314C108.642 14.6155 111.641 13.6932 114.464 12.2801C119.112 9.95652 122.636 6.48593 125.04 1.87424C125.346 1.28891 125.623 0.679928 125.741 0C125.158 0.248322 124.651 0.478906 124.126 0.679928L124.162 0.697666ZM39.494 54.9264L28.0459 54.95L33.4783 42.1496C33.7198 42.262 33.9673 42.3743 34.2148 42.4867L39.494 54.9205V54.9264ZM92.9225 41.789L98.6201 55.2102L87.1719 55.2338L92.7988 41.9841C92.8341 41.9664 92.8695 41.9545 92.9048 41.9368L92.8577 41.8422L92.8813 41.789C92.8813 41.789 92.9107 41.789 92.9225 41.789Z" fill="#CF244A"/>
</svg>
