<svg width="126" height="85" viewBox="0 0 126 85" fill="none" xmlns="http://www.w3.org/2000/svg">
<path d="M124.162 0.754835C119.513 2.67391 114.776 4.32431 110.062 6.03868C107.281 7.04939 104.5 8.04731 101.719 9.05162C100.087 9.61455 98.4492 10.1775 96.8171 10.7404C93.9536 11.7383 91.0901 12.7298 88.2266 13.7278C87.4607 14.0092 86.6475 14.15 85.9287 14.5658C83.7723 15.1287 81.6865 15.9475 79.5831 16.6959C78.3634 17.1309 77.3618 17.9241 76.5781 19.0308C75.877 20.0159 75.1759 21.0074 74.4747 21.999C74.1565 22.4467 73.8207 22.9777 73.3552 23.2719C72.6128 23.7389 71.7821 23.2847 71.134 22.8433C70.3326 22.2932 69.5667 21.6791 68.9421 20.9051C68.3176 20.1311 67.8462 19.1907 67.7166 18.1736C67.5752 17.0222 67.9287 15.8323 68.7065 15.0199C69.496 14.2011 70.6331 13.8557 71.7232 13.9453C72.607 14.022 73.0783 14.6425 73.3493 15.5189C74.5395 13.5039 73.8089 11.5592 71.6701 10.8555C70.4387 10.3886 69.2957 9.66572 68.0053 9.38426C67.587 9.15397 67.1274 9.12838 66.6737 9.0836C64.9297 8.91729 63.2623 9.3075 61.6891 10.0815C60.3634 10.734 59.0554 11.4377 57.5117 11.8854C58.148 12.3332 58.6665 12.5571 59.2027 12.7298C60.1513 13.0369 60.1572 13.0305 59.568 13.9133C58.5663 15.4165 57.6943 16.9966 56.7929 18.5702C56.7811 18.5894 54.6717 21.8007 52.6449 23.8541C52.1382 23.144 51.6492 22.4276 51.1778 21.6919C50.2586 20.259 49.3866 18.7429 48.0904 17.7194C46.6233 16.5552 44.8027 16.165 43.0881 15.6404C41.2086 15.0583 39.3703 14.2971 37.5084 13.6574C33.3545 12.2245 29.1948 10.7916 25.0527 9.31389C18.3241 6.88947 11.566 4.5418 4.87267 1.99583C3.29951 1.40092 1.73224 0.767629 0 0.00639691C1.53192 4.27313 4.19509 7.99613 7.53585 10.7724C11.1771 13.7981 15.3899 15.2246 19.7382 16.5808C23.9097 17.8857 28.1637 18.8837 32.2351 20.5469C32.9598 20.8411 33.767 20.9499 34.3797 21.5256C32.512 21.1482 30.656 20.7324 28.7647 20.5085C27.4508 20.195 26.1192 19.9839 24.7994 19.6833C20.8576 18.7813 16.91 17.9305 13.039 16.7279C11.8075 16.3505 10.5761 15.9731 9.2622 15.5701C9.70999 16.4848 10.2874 17.1565 10.8236 17.8602C13.6635 21.5512 17.3578 23.7837 21.5234 25.1974C21.5823 25.2422 21.6413 25.3126 21.712 25.3381C25.2589 26.5408 28.8766 27.4171 32.5414 28.076C34.2796 28.4982 36.0472 28.7349 37.8089 29.0356C39.058 29.2467 40.3306 29.2722 41.5562 29.6688C40.3424 29.688 39.1346 29.7072 37.9208 29.7264C37.8442 29.7136 37.7676 29.6944 37.6969 29.6944C33.1424 29.8032 28.6351 29.3874 24.1748 28.3895C23.126 28.1528 22.0714 27.9225 20.8046 27.6474C23.4383 31.0954 26.7673 32.9441 30.273 34.5049C30.8033 34.7672 31.3277 35.0422 31.8698 35.2789C34.6272 36.5007 37.3788 37.7417 40.2364 38.6693C43.312 39.8655 46.4171 40.953 49.587 41.823C50.1644 42.0341 50.7418 42.2452 51.3192 42.4563C45.2622 41.9125 39.223 41.2536 33.2367 40.0446C34.0851 40.5756 34.9395 41.0617 35.8174 41.4775C42.4989 44.6504 49.4868 46.5887 56.6986 47.6569C57.3055 47.7465 57.3703 47.9256 57.1876 48.5269C56.9637 49.269 56.728 49.9982 56.4747 50.7275C48.9094 49.9662 41.5915 47.868 34.6508 44.4585L34.4858 44.0427C34.4858 44.0427 34.4858 44.0107 34.4858 43.9979C34.4858 43.4926 34.1087 43.0832 33.6432 43.0832C33.1778 43.0832 32.8007 43.4926 32.8007 43.9979C32.8007 44.1514 32.836 44.2922 32.9009 44.4201L27.003 59.4528H23.4737L23.9568 60.2589C26.1427 63.8667 29.8252 66.0225 33.7964 66.0225C37.7676 66.0225 41.4796 63.8475 43.6655 60.2077L44.1428 59.4081H40.5074L35.4639 46.5695C42.004 49.5952 48.8564 51.4951 55.9267 52.2499C55.5143 53.3886 55.0724 54.5144 54.6187 55.6339C54.2475 56.4527 53.8881 57.2779 53.4992 58.0903C52.804 59.5488 52.0911 60.9945 51.384 62.4466C50.4649 64.1098 49.5457 65.773 48.6266 67.4362C48.3143 67.9032 48.0138 68.3765 47.6838 68.8243C47.5012 69.0738 47.5424 69.2593 47.731 69.464C48.9683 70.8137 50.2056 72.1699 51.437 73.526C51.6433 73.7499 51.8023 73.7563 51.985 73.4876C52.804 72.2658 53.6348 71.0504 54.165 69.6367C55.0547 68.159 55.7912 66.5918 56.4452 64.9734C57.223 63.1694 58.0655 61.3911 58.5958 59.4784C59.4914 57.2459 60.1513 54.9302 60.7228 52.5826C60.7758 52.5826 60.8348 52.5826 60.8878 52.5826L60.929 52.6785C60.605 54.3673 60.2809 56.0625 59.951 57.7513C59.3971 59.875 58.8374 61.9988 58.2835 64.1226C57.712 65.8306 57.1405 67.5449 56.5749 69.2529C56.074 70.4875 55.5673 71.7221 55.0665 72.9503C54.6305 73.8139 54.2063 74.6903 53.7467 75.5411C53.5876 75.8353 53.6819 75.9888 53.8587 76.1743C54.7837 77.1531 55.7028 78.1382 56.622 79.1233C58.1834 80.7929 60.493 83.083 62.0367 84.7718C62.0544 84.2536 62.8086 62.8432 62.9559 62.3762L63.8279 84.6502C64.9827 83.4412 70.8335 77.2234 72.0472 75.9569C72.3241 75.669 72.3123 75.4259 72.1592 75.0869C70.5801 71.607 69.2957 67.9991 68.2233 64.2953C67.1038 60.4316 66.1788 56.5167 65.4069 52.5634C65.4776 52.5634 65.5484 52.5634 65.6249 52.557C66.3143 55.2501 67.1863 57.8856 68.1349 60.4827C69.6786 64.7047 71.4875 68.7923 73.6145 72.7072C73.9601 73.3384 74.3628 73.4066 74.8223 72.9119C75.8358 71.8181 76.8374 70.7114 77.8744 69.6431C78.2397 69.2721 78.275 68.9842 77.9981 68.5237C75.0639 63.6492 72.6659 58.4549 70.2914 53.2478C70.1382 52.9152 69.9909 52.5826 69.8377 52.2499C77.3323 51.4631 84.5854 49.3905 91.4849 46.0513L86.1114 59.7535H82.5821L83.0652 60.5595C85.2512 64.1674 88.9336 66.3231 92.9048 66.3231C96.876 66.3231 100.588 64.1482 102.774 60.5083L103.251 59.7087H99.6158L93.5824 44.3433C93.5824 44.3306 93.5824 44.3114 93.5824 44.2986C93.5824 43.7932 93.2053 43.3838 92.7399 43.3838C92.3333 43.3838 91.9975 43.6909 91.915 44.1067C84.6855 47.7529 77.0554 49.979 69.1484 50.7403C68.73 49.7999 68.3117 48.866 67.8934 47.9256C69.0718 47.7465 70.3562 47.5098 71.4403 47.2987C71.4875 47.2923 71.5287 47.2859 71.5817 47.2795C71.8763 47.222 72.1709 47.158 72.4655 47.094C72.7955 47.0237 73.0842 46.9661 73.3199 46.9149C73.4613 46.8829 73.6027 46.8573 73.7441 46.8253C73.8796 46.7934 73.9562 46.7806 73.9562 46.7806C78.6168 45.7507 83.1949 44.4201 87.6374 42.533C89.4109 41.7782 91.1608 40.985 92.9991 39.8143C86.7359 41.1961 80.6142 41.9061 74.4688 42.4627C74.6927 42.3219 74.9284 42.2516 75.1641 42.1812C81.4921 40.3069 87.7081 38.0744 93.7651 35.3429C96.6404 34.0507 99.5157 32.7522 102.055 30.7435C103.139 29.8863 104.052 28.85 104.895 27.6858C98.0662 29.5665 91.1549 29.9631 84.0728 29.5985C86.0701 29.2083 87.9909 29.0995 89.8646 28.6517C92.787 28.2423 95.6859 27.6602 98.5611 26.9374C100.812 26.3744 103.051 25.7795 105.201 24.8264C107.953 23.886 110.439 22.4148 112.655 20.4189C114.187 19.0436 115.495 17.438 116.626 15.4805C113.22 16.7023 109.868 17.6171 106.492 18.4231C104.73 18.8453 102.962 19.2547 101.201 19.6705C100.853 19.7345 100.5 19.7984 100.152 19.8624C99.7985 19.9392 99.4449 20.0159 99.0914 20.0927C98.9913 20.0671 98.8557 20.1183 98.7438 20.1694C96.2868 20.5341 93.8417 21.0074 91.4083 21.532C91.3906 21.4744 91.149 21.4936 91.3435 21.3721C91.5733 21.2313 91.8266 21.1418 92.0682 21.033C96.5107 19.3187 101.065 18.0137 105.614 16.6959C108.642 15.8131 111.641 14.8152 114.464 13.2864C119.112 10.7724 122.636 7.01741 125.04 2.02782C125.346 1.39453 125.623 0.735644 125.741 0C125.158 0.26867 124.651 0.518149 124.126 0.735644L124.162 0.754835ZM39.494 59.4272L28.0459 59.4528L33.4783 45.6035C33.7198 45.7251 33.9673 45.8466 34.2148 45.9682L39.494 59.4209V59.4272ZM92.9225 45.2133L98.6201 59.7343L87.1719 59.7599L92.7988 45.4244C92.8341 45.4052 92.8695 45.3924 92.9048 45.3732L92.8577 45.2709L92.8813 45.2133C92.8813 45.2133 92.9107 45.2133 92.9225 45.2133Z" fill="#CF244A"/>
</svg>
