<svg width="25" height="25" viewBox="0 0 25 25" fill="none" xmlns="http://www.w3.org/2000/svg">
<path d="M12.5 0C5.59875 0 0 5.59257 0 12.4975C0 19.4024 5.59875 25 12.5 25C19.4013 25 25 19.4024 25 12.4975C25 5.59257 19.4063 0 12.5 0ZM4.31644 7.1068C7.0729 7.1068 9.82936 7.1068 12.5909 7.1068H20.6735C20.7239 7.1068 20.7744 7.10176 20.8249 7.1068C20.8905 7.1169 20.9814 7.07147 21.0117 7.14718C21.0319 7.20271 20.941 7.23299 20.8956 7.27337C19.3154 8.61094 17.7353 9.94852 16.1551 11.2861C15.0091 12.2552 13.8631 13.2193 12.7171 14.1934C12.606 14.2893 12.5404 14.2742 12.4344 14.1884C10.5967 12.6338 8.75909 11.0791 6.92145 9.52453C6.02787 8.76741 5.13429 8.01534 4.24071 7.25823C4.20032 7.2229 4.11955 7.19766 4.14479 7.14214C4.17003 7.07652 4.25586 7.1068 4.31644 7.1068ZM20.209 18.6957C17.6595 18.6957 15.1101 18.6957 12.5606 18.6957C10.0111 18.6957 7.48687 18.6957 4.9475 18.6957C4.51333 18.6957 4.18518 18.4686 4.07411 18.1001C4.05392 18.0295 4.04887 17.9588 4.04887 17.8831C4.04887 14.9455 4.04887 12.0028 4.04887 9.06521C4.04887 9.01474 4.02363 8.94912 4.07916 8.92388C4.13974 8.89865 4.17508 8.96426 4.21042 8.99455C5.19487 9.82233 6.17427 10.6501 7.15872 11.4779C8.59249 12.6842 10.0212 13.8956 11.455 15.102C12.0961 15.642 13.0553 15.642 13.7015 15.102C14.6103 14.3448 15.5089 13.5776 16.4126 12.8155C17.9221 11.5385 19.4315 10.2665 20.9461 8.99455C20.9865 8.96426 21.0218 8.8936 21.0773 8.91884C21.1329 8.94407 21.1076 9.01474 21.1076 9.06017C21.1076 11.9927 21.1076 14.9303 21.1076 17.8629C21.1076 18.3525 20.7391 18.6856 20.209 18.6856V18.6957Z" fill="white"/>
</svg>
