<svg width="25" height="25" viewBox="0 0 25 25" fill="none" xmlns="http://www.w3.org/2000/svg">
<path d="M24.7516 10.1259C23.6381 4.18412 18.3709 -0.0315615 12.4019 0.00716525C11.8952 -0.0204967 11.2936 0.0348272 10.7025 0.123345C8.16921 0.50508 5.92092 1.5341 4.05263 3.28787C1.06019 6.09833 -0.290895 9.57267 0.0521534 13.6722C0.231594 15.8243 0.970468 17.7938 2.20016 19.5752C2.31627 19.7412 2.33738 19.8795 2.27405 20.0676C1.80962 21.4286 1.35574 22.7895 0.901858 24.1505C0.87547 24.2335 0.801582 24.3275 0.870192 24.3995C0.938802 24.4769 1.03908 24.3995 1.11824 24.3773C2.50099 23.9403 3.88902 23.5032 5.26649 23.0496C5.51982 22.9666 5.71509 22.9887 5.94203 23.127C8.50698 24.7148 11.2989 25.2902 14.2755 24.8642C17.289 24.4327 19.8381 23.0662 21.8436 20.7647C24.5194 17.6942 25.5064 14.1148 24.7569 10.1204L24.7516 10.1259ZM17.7429 19.7965C17.3787 19.9182 17.0199 19.968 16.661 19.968C16.0277 19.968 15.4049 19.8131 14.7769 19.6306C12.0061 18.8339 9.65751 17.3069 7.78922 15.0885C7.02923 14.1867 6.23758 13.1908 5.60954 12.0622C4.97094 10.9115 4.70178 9.82716 4.78095 8.74834C4.87594 7.52568 5.37732 6.50772 6.2798 5.71659C6.76535 5.2906 7.37228 5.24081 7.88949 5.2574C8.55976 5.11909 9.06641 5.47317 9.38835 6.31409C9.65751 7.0167 9.95306 7.70825 10.2433 8.3998L10.4492 8.87559C10.6286 9.30158 10.5917 9.72757 10.3436 10.1093C10.2064 10.3195 10.0375 10.5076 9.8739 10.6902L9.3778 11.26C9.31446 11.3375 9.30391 11.3762 9.37252 11.4813C10.0375 12.5657 10.7394 13.4121 11.5153 14.0705C12.2805 14.7233 13.1249 15.2434 14.0274 15.614C14.476 15.7966 14.571 15.7745 14.856 15.4093C15.0143 15.2046 15.1674 14.9999 15.3205 14.7897L15.6054 14.408C16.0224 13.8492 16.4499 13.7275 17.0832 13.9986C17.7904 14.2973 18.4765 14.6403 19.1626 14.9778L19.9542 15.3651C20.3237 15.5421 20.519 15.8796 20.5031 16.3111C20.424 18.1977 19.6798 19.1437 17.7587 19.791L17.7429 19.7965Z" fill="white"/>
</svg>
